#!OML:ASF H:\Terrain\Patient Classification 1\Walking\steve\steve.ASF
:FULLY-SPECIFIED
:DEGREES
232
root 9.57607 16.5998 25.2896 5.35004 -6.42316 -3.7103
lowerback 0.411479 3.62406 4.849
upperback -2.76085 4.98089 1.83662
thorax -2.82976 2.39102 -0.944291
lowerneck -9.72961 -1.95223 -3.22184
upperneck 20.1496 -2.33862 1.0895
head 7.87121 -1.24839 0.673863
rclavicle 4.7025e-015 2.54444e-014
rhumerus -28.1765 3.51553 -85.4003
rradius 49.5989
rwrist -9.25427
rhand -19.7651 -42.4782
rfingers 7.12502
rthumb 6.56663 -72.3564
lclavicle 4.7025e-015 2.54444e-014
lhumerus -47.8968 18.0306 72.2023
lradius 11.7639
lwrist -15.9403
lhand -21.2947 -13.52
lfingers 7.12502
lthumb 5.0898 16.3989
rfemur -3.93698 -0.583255 27.647
rtibia 30.4788
rfoot -20.1863 17.5384
rtoes -1.88747
lfemur -35.8563 6.12128 -18.2807
ltibia 37.5481
lfoot -18.8382 5.42489
ltoes -18.0138
233
root 9.59618 16.6123 25.543 5.69715 -6.69288 -4.18369
lowerback 0.140981 3.70961 5.48129
upperback -2.82775 5.09021 1.88253
thorax -2.69449 2.43286 -1.22831
lowerneck -9.59931 -1.72293 -2.55999
upperneck 19.7504 -2.03307 0.56046
head 7.69489 -1.10228 0.42079
rclavicle 2.11954e-014 -2.06736e-014
rhumerus -27.5645 5.38783 -85.7216
rradius 51.2171
rwrist -10.8018
rhand -20.9269 -41.4354
rfingers 7.12502
rthumb 5.44496 -71.3454
lclavicle 2.11954e-014 -2.06736e-014
lhumerus -49.5883 19.1301 70.0802
lradius 11.3123
lwrist -18.2252
lhand -20.627 -12.7837
lfingers 7.12502
lthumb 5.73452 17.1187
rfemur -2.70764 -1.42602 27.7007
rtibia 29.2314
rfoot -19.4856 18.2989
rtoes -3.38087
lfemur -36.1325 5.22802 -17.2483
ltibia 33.8575
lfoot -18.4041 5.86421
ltoes -16.6444
234
root 9.61546 16.6125 25.7945 5.98702 -7.31123 -4.44081
lowerback -0.199248 3.90671 5.86161
upperback -2.73122 5.32487 1.85033
thorax -2.35399 2.55111 -1.44109
lowerneck -9.92305 -1.68268 -2.46138
upperneck 19.5432 -1.98608 0.560959
head 7.68281 -1.07121 0.406781
rclavicle -5.04261e-014 -2.90226e-014
rhumerus -26.6704 6.86235 -85.9311
rradius 52.711
rwrist -11.7191
rhand -22.0242 -40.0495
rfingers 7.12502
rthumb 4.38543 -69.9841
lclavicle -5.04261e-014 -2.90226e-014
lhumerus -50.8189 19.5088 68.8252
lradius 11.1439
lwrist -19.15
lhand -20.3648 -12.5085
lfingers 7.12502
lthumb 5.98763 17.3869
rfemur -1.33811 -1.44699 27.5417
rtibia 27.8453
rfoot -18.3784 19.0486
rtoes -3.41417
lfemur -36.244 4.21811 -16.2125
ltibia 30.2494
lfoot -18.2432 6.60755
ltoes -14.1934
235
root 9.62771 16.6313 26.0493 6.24489 -8.16787 -4.35426
lowerback -0.659635 4.14668 5.70031
upperback -2.56903 5.59707 1.82223
thorax -1.92135 2.70434 -1.33781
lowerneck -10.5171 -1.77776 -2.66803
upperneck 19.6078 -2.04085 0.453217
head 7.81402 -1.1216 0.395103
rclavicle -3.66292e-014 4.77083e-015
rhumerus -25.9012 8.03432 -85.9089
rradius 54.4561
rwrist -11.9195
rhand -22.6607 -41.4127
rfingers 7.12502
rthumb 3.77071 -71.3591
lclavicle -3.66292e-014 4.77083e-015
lhumerus -52.0234 20.1628 67.5374
lradius 10.9795
lwrist -19.9995
lhand -20.2077 -12.227
lfingers 7.12502
lthumb 6.13925 17.6641
rfemur -0.0875333 -1.30407 26.9583
rtibia 26.4466
rfoot -16.7589 20.2289
rtoes -1.69503
lfemur -36.206 3.02923 -15.2911
ltibia 26.8034
lfoot -18.7564 7.75682
ltoes -12.1903
236
root 9.64128 16.6433 26.3117 6.54255 -8.75521 -4.35018
lowerback -1.53658 4.34244 5.71432
upperback -2.21469 5.76982 1.80936
thorax -1.05052 2.81804 -1.26667
lowerneck -10.9752 -1.78929 -2.71289
upperneck 19.3876 -1.97062 0.146663
head 7.82064 -1.11866 0.305174
rclavicle -2.09625e-014 -2.3059e-014
rhumerus -24.8715 9.2205 -85.6897
rradius 56.2009
rwrist -12.0627
rhand -23.3055 -45.0862
rfingers 7.12502
rthumb 3.14807 -75.0427
lclavicle -2.09625e-014 -2.3059e-014
lhumerus -53.052 21.2214 65.9968
lradius 10.7118
lwrist -21.2019
lhand -20.7328 -12.647
lfingers 7.12502
lthumb 5.63236 17.2582
rfemur 1.11103 -1.75776 26.3837
rtibia 25.0401
rfoot -14.8558 21.6664
rtoes 0.649956
lfemur -36.2383 1.62389 -14.2251
ltibia 23.6472
lfoot -19.2425 9.09963
ltoes -10.2021
237
root 9.65937 16.6437 26.5839 6.87698 -9.23547 -4.44332
lowerback -2.99183 4.58928 6.11013
upperback -1.48181 5.9367 1.64922
thorax 0.584566 2.94885 -1.47552
lowerneck -11.5851 -1.75191 -2.65538
upperneck 18.6835 -1.93619 0.268723
head 7.69732 -1.08171 0.336306
rclavicle -6.4605e-015 1.86858e-014
rhumerus -23.055 10.2289 -85.4132
rradius 57.7099
rwrist -12.2776
rhand -24.0305 -45.0839
rfingers 7.12502
rthumb 2.44792 -75.0496
lclavicle -6.4605e-015 1.86858e-014
lhumerus -53.114 21.5994 65.4127
lradius 10.4975
lwrist -21.3663
lhand -21.8791 -13.5401
lfingers 7.12502
lthumb 4.52555 16.3915
rfemur 2.45758 -2.38164 25.8158
rtibia 23.5529
rfoot -12.9068 23.0425
rtoes 2.69562
lfemur -36.4181 0.342803 -13.1255
ltibia 21.0305
lfoot -19.6495 10.4855
ltoes -8.41396
238
root 9.67498 16.6382 26.8455 7.15282 -9.78 -4.5269
lowerback -2.1642 4.608 5.75863
upperback -2.36509 6.08013 1.82651
thorax -0.833786 2.97529 -1.21839
lowerneck -11.283 -1.76835 -3.5004
upperneck 19.3426 -1.93932 0.932347
head 7.87748 -1.08523 0.695849
rclavicle 3.92227e-014 8.34896e-015
rhumerus -23.8812 11.9285 -85.5317
rradius 59.4801
rwrist -12.727
rhand -24.9383 -41.8712
rfingers 7.12502
rthumb 1.57117 -71.8452
lclavicle 3.92227e-014 8.34896e-015
lhumerus -55.4451 19.9188 65.7819
lradius 10.874
lwrist -19.2845
lhand -22.3542 -13.1815
lfingers 7.12502
lthumb 4.06674 16.7594
rfemur 3.82071 -2.51355 25.3598
rtibia 22.1575
rfoot -11.4317 23.8287
rtoes 3.38505
lfemur -36.6866 -0.596558 -12.1534
ltibia 18.9394
lfoot -20.4541 11.7375
ltoes -8.27961
239
root 9.68695 16.6165 27.0922 7.44128 -10.3336 -4.71854
lowerback -1.62174 4.72789 5.73294
upperback -2.94568 6.31342 1.85292
thorax -1.72895 3.06083 -1.2514
lowerneck -10.788 -1.51534 -2.65828
upperneck 19.1058 -1.61868 0.188229
head 7.68798 -0.942362 0.34701
rclavicle -7.0786e-015 1.66979e-014
rhumerus -24.0578 12.7689 -85.5338
rradius 60.6184
rwrist -12.0442
rhand -22.8534 -35.5681
rfingers 7.12502
rthumb 3.58468 -65.5177
lclavicle -7.0786e-015 1.66979e-014
lhumerus -57.0659 18.57 66.0386
lradius 11.1317
lwrist -17.5234
lhand -22.0603 -12.1775
lfingers 7.12502
lthumb 4.35053 17.7578
rfemur 4.86951 -2.30145 25.187
rtibia 21.0622
rfoot -9.51112 24.1919
rtoes 5.17767
lfemur -37.0465 -1.07391 -11.2879
ltibia 17.1511
lfoot -20.9969 12.7965
ltoes -9.70899
240
root 9.69783 16.5884 27.3444 7.71745 -10.8994 -4.66981
lowerback -1.52018 4.89232 5.55839
upperback -3.30426 6.55726 1.72291
thorax -2.14593 3.16885 -1.31402
lowerneck -10.4652 -1.64139 -3.00785
upperneck 19.0268 -1.87084 0.847392
head 7.61732 -1.02653 0.599316
rclavicle 2.60284e-015 -2.3059e-014
rhumerus -24.1903 13.9031 -85.774
rradius 62.3547
rwrist -12.9733
rhand -25.5875 -39.6046
rfingers 7.12502
rthumb 0.944164 -69.5823
lclavicle 2.60284e-015 -2.3059e-014
lhumerus -58.3315 17.8481 65.6328
lradius 11.0545
lwrist -16.7539
lhand -21.5038 -11.8014
lfingers 7.12502
lthumb 4.88793 18.1222
rfemur 5.78327 -2.3175 24.7103
rtibia 20.2778
rfoot -8.20259 24.2384
rtoes 3.88775
lfemur -37.3977 -0.9543 -11.0541
ltibia 15.6553
lfoot -21.0843 12.9442
ltoes -11.2324
241
root 9.70651 16.5672 27.6018 7.76579 -11.3285 -4.40652
lowerback -1.69384 5.04319 5.22418
upperback -3.26355 6.74044 1.50859
thorax -2.00573 3.27011 -1.32927
lowerneck -10.4461 -1.59119 -2.68022
upperneck 18.5698 -1.85464 0.814656
head 7.45931 -0.996877 0.536515
rclavicle -2.92617e-014 -4.45278e-014
rhumerus -23.8998 14.1016 -85.6665
rradius 63.8763
rwrist -12.4884
rhand -25.1168 -36.0803
rfingers 7.12502
rthumb 1.39873 -66.0555
lclavicle -2.92617e-014 -4.45278e-014
lhumerus -59.0738 17.7621 64.6827
lradius 10.7641
lwrist -17.0695
lhand -20.8423 -11.7568
lfingers 7.12502
lthumb 5.52657 18.1512
rfemur 7.0038 -2.22831 24.0735
rtibia 19.6176
rfoot -9.13717 23.7161
rtoes -3.74947
lfemur -37.5715 -0.692001 -11.2429
ltibia 14.6593
lfoot -21.1688 11.9741
ltoes -10.3183
242
root 9.71405 16.5491 27.8611 7.82431 -11.6003 -4.52497
lowerback -2.01934 5.15864 5.27465
upperback -3.01443 6.85708 1.39776
thorax -1.53983 3.34135 -1.41977
lowerneck -10.9916 -1.63473 -2.70755
upperneck 18.4325 -1.97673 1.23821
head 7.5181 -1.01581 0.66391
rclavicle -4.07773e-014 2.90226e-014
rhumerus -23.2074 13.7403 -85.3669
rradius 65.2966
rwrist -10.3058
rhand -24.0331 -37.8196
rfingers 7.12502
rthumb 2.44537 -67.7854
lclavicle -4.07773e-014 2.90226e-014
lhumerus -59.39 17.7153 64.0426
lradius 10.5632
lwrist -17.0915
lhand -20.0445 -11.5962
lfingers 7.12502
lthumb 6.29687 18.2902
rfemur 8.1977 -1.49899 23.98
rtibia 19.0144
rfoot -8.77149 23.284
rtoes -5.44917
lfemur -37.7741 -0.609698 -10.9743
ltibia 14.2747
lfoot -20.9415 10.7542
ltoes -8.4091
243
root 9.72396 16.51 28.124 8.14166 -11.8434 -5.203
lowerback -2.5297 5.27642 5.85878
upperback -2.83772 6.95956 1.46281
thorax -1.00862 3.39844 -1.60337
lowerneck -11.5945 -1.84777 -3.17384
upperneck 18.4709 -2.30049 1.9315
head 7.65922 -1.13518 0.931976
rclavicle 3.1321e-014 1.90833e-014
rhumerus -22.8169 14.2917 -85.3951
rradius 66.603
rwrist -10.9055
rhand -26.4365 -36.0905
rfingers 7.12502
rthumb 0.12413 -66.0702
lclavicle 3.1321e-014 1.90833e-014
lhumerus -59.763 17.8933 63.2927
lradius 10.4348
lwrist -17.3185
lhand -19.059 -11.0796
lfingers 7.12502
lthumb 7.24821 18.7762
rfemur 9.11969 -0.346346 24.5103
rtibia 18.6061
rfoot -6.36924 23.1339
rtoes -0.535463
lfemur -38.1852 -0.299903 -10.2792
ltibia 14.3806
lfoot -20.3762 9.90046
ltoes -9.82618
244
root 9.73557 16.4561 28.388 8.18253 -12.0851 -5.72016
lowerback -2.98599 5.4014 6.45403
upperback -2.51833 7.05981 1.42816
thorax -0.344693 3.46282 -1.88782
lowerneck -11.7317 -2.01438 -3.14442
upperneck 17.998 -2.54663 2.04111
head 7.53605 -1.23917 0.937035
rclavicle 4.29049e-014 -1.07344e-014
rhumerus -22.5535 14.5206 -85.4464
rradius 68.0522
rwrist -10.9046
rhand -28.1863 -34.9428
rfingers 7.12502
rthumb -1.56588 -64.9168
lclavicle 4.29049e-014 -1.07344e-014
lhumerus -60.2206 18.7064 61.5336
lradius 10.1683
lwrist -18.8714
lhand -18.4158 -11.0277
lfingers 7.12502
lthumb 7.86904 18.8058
rfemur 10.2285 0.803713 24.9073
rtibia 18.4862
rfoot -4.35741 22.865
rtoes 2.84604
lfemur -38.2872 0.200804 -10.0331
ltibia 14.9328
lfoot -19.9107 9.38539
ltoes -12.3579
245
root 9.7472 16.415 28.6597 7.67111 -12.3917 -5.28901
lowerback -2.81357 5.41605 5.9315
upperback -2.28208 7.09436 1.26055
thorax -0.232336 3.49296 -1.77818
lowerneck -11.9223 -1.7002 -2.36469
upperneck 17.9559 -2.17614 1.5957
head 7.53143 -1.0497 0.697863
rclavicle 2.91561e-014 2.98177e-014
rhumerus -22.733 14.6512 -85.4736
rradius 69.4129
rwrist -10.3953
rhand -28.2073 -35.0222
rfingers 7.12502
rthumb -1.58616 -64.996
lclavicle 2.91561e-014 2.98177e-014
lhumerus -60.4479 18.7473 61.1482
lradius 9.76442
lwrist -18.981
lhand -18.4058 -11.1349
lfingers 7.12502
lthumb 7.87867 18.6982
rfemur 11.5429 1.53742 24.2495
rtibia 18.7027
rfoot -3.13426 22.5383
rtoes 1.93048
lfemur -37.8527 0.486237 -10.8992
ltibia 16.0031
lfoot -19.6699 8.36698
ltoes -13.4258
246
root 9.75072 16.3773 28.9225 7.42507 -12.6345 -4.94845
lowerback -1.72272 5.41175 5.12273
upperback -2.9636 7.21142 1.17632
thorax -1.62034 3.51815 -1.58093
lowerneck -11.5039 -1.90115 -2.91348
upperneck 18.1293 -2.54024 2.51977
head 7.54064 -1.17787 1.05818
rclavicle 4.90781e-014 -2.38542e-015
rhumerus -24.3299 14.9484 -85.8275
rradius 70.6482
rwrist -10.4804
rhand -28.8925 -36.5138
rfingers 7.12502
rthumb -2.24793 -66.4817
lclavicle 4.90781e-014 -2.38542e-015
lhumerus -61.7209 18.1074 60.4416
lradius 9.51958
lwrist -19.1522
lhand -18.0913 -10.6074
lfingers 7.12502
lthumb 8.18218 19.2142
rfemur 12.2292 2.19772 23.7779
rtibia 19.4336
rfoot -1.47526 21.7396
rtoes 2.70032
lfemur -37.7409 1.20485 -11.9289
ltibia 17.2955
lfoot -18.6188 6.89677
ltoes -13.2835
